<?xml version="1.0" encoding="UTF-8"?>
<!-- Created by JSCAD SVG Serializer -->
<!DOCTYPE svg PUBLIC "-//W3C//DTD SVG 1.1 Tiny//EN" "http://www.w3.org/Graphics/SVG/1.1/DTD/svg11-tiny.dtd">
<svg width="190.835mm" height="199.017mm" viewBox="0 0 190.835 199.017" fill="none" fill-rule="evenodd" stroke-width="0.1px" version="1.1" baseProfile="tiny" xmlns="http://www.w3.org/2000/svg" xmlns:xlink="http://www.w3.org/1999/xlink">
  <g>
    <path d="M9.93 194.6747L9.4989 195.0743L9.0464 195.4322L8.6529 195.6985L8.2446 195.936L7.7205 196.189L7.1737 196.3979L6.6044 196.5629L6.0393 196.679L5.4738 196.7494L5.0023 196.7731L4.5305 196.765L3.9484 196.7111L3.3659 196.609L2.7831 196.4584L3.3787 194.5595L3.7868 194.6685L4.1947 194.7441L4.5343 194.7817L4.8737 194.7961L5.2919 194.7821L5.7098 194.7328L6.1273 194.6483L6.526 194.5336L6.91 194.3882L7.2188 194.2435L7.5173 194.0775L7.8714 193.8434L8.21 193.5768L8.5331 193.2778L8.7459 193.0523L8.9428 192.8174L9.1238 192.5731L9.3275 192.2545L9.5063 191.9213L9.6603 191.5735L9.8112 191.1463L9.9246 190.7172L9.9904 190.3582L10.0301 189.998L10.0437 189.6364L10.0357 189.3471L10.0108 189.0586L9.9689 188.7711L9.8929 188.4128L9.7905 188.056L9.6616 187.7005L9.54 187.4212L9.4023 187.1512L9.2486 186.8903L9.0339 186.5771L8.7942 186.2783L8.5294 185.9938L8.4732 185.9376L8.4545 185.9189L0 177.4644L1.3969 176.0675L9.851 184.5215L9.9259 184.5964L10.2216 184.9093L10.4951 185.2344L10.7462 185.5716L11.0289 186.0103L11.2768 186.4678L11.4898 186.9444L11.6985 187.5309L11.8548 188.1242L11.9452 188.6237L11.9993 189.1278L12.0171 189.6365L11.9907 190.2464L11.9124 190.8498L11.8074 191.3476L11.6663 191.8408L11.4892 192.3294L11.3219 192.7123L11.1325 193.0829L10.9209 193.4412L10.6253 193.8716L10.2949 194.2828L9.93 194.6747" stroke="rgba(0,0,0,1)"/>
  </g>
  <g>
    <path d="M13.5749 185.9484L14.1679 184.0834L14.6178 184.21L15.0753 184.3045L15.5403 184.367L16.0101 184.3935L16.4823 184.38L16.9567 184.3265L17.275 184.2643L17.5957 184.1759L17.9188 184.0611L18.4079 183.8398L18.7353 183.6551L19.0617 183.4358L19.3871 183.1818L19.8733 182.7358L20.1257 182.467L20.3554 182.1882L20.5623 181.8993L20.8299 181.4473L20.9771 181.1384L21.0962 180.8292L21.1738 180.5715L21.2319 180.3136L21.2704 180.0555L21.2869 179.8498L21.2908 179.6455L21.282 179.4427L21.253 179.1913L21.2042 178.9422L21.1355 178.6954L21.0648 178.5011L20.9789 178.3113L20.8955 178.1564L20.8014 178.0046L20.6707 177.8216L20.5237 177.6433L20.3605 177.4696L20.1474 177.2692L19.9302 177.09L19.7461 176.9568L19.5591 176.8383L19.3245 176.7125L19.1315 176.6271L18.9357 176.5563L18.7527 176.504L18.5673 176.4643L18.3848 176.4375L18.2001 176.4225L18.0131 176.4193L17.6205 176.4404L17.2005 176.4931L16.7533 176.5774L16.0314 176.7631L14.8333 177.1748L13.223 177.7737L12.1736 178.1175L11.2038 178.3738L10.7951 178.4548L10.3958 178.509L10.0059 178.5364L9.4384 178.5272L9.0706 178.4861L8.7095 178.4154L8.4139 178.3339L8.123 178.2318L7.8369 178.1091L7.4978 177.9309L7.1617 177.7154L6.8839 177.5073L6.608 177.2734L6.3343 177.0136L6.0177 176.6704L5.8295 176.4348L5.6596 176.1939L5.4962 175.9268L5.3543 175.6535L5.2338 175.3737L5.1406 175.1121L5.0638 174.8494L5.0032 174.5857L4.9504 174.2546L4.9231 173.9219L4.9213 173.5875L4.9387 173.3193L4.9734 173.051L5.0256 172.7825L5.1151 172.4466L5.2318 172.1104L5.3757 171.7741L5.5825 171.3762L5.8251 170.9903L6.0546 170.6779L6.309 170.3737L6.5883 170.0779L7.0008 169.6924L7.4186 169.3555L7.7709 169.1119L8.127 168.9021L8.4225 168.7548L8.7206 168.6304L8.971 168.5441L9.223 168.4737L9.4769 168.4191L9.922 168.3511L10.3652 168.3106L10.8064 168.2976L11.3552 168.3201L11.9009 168.3855L12.4436 168.4938L11.9961 170.3859L11.54 170.3054L11.0867 170.2636L10.7112 170.2582L10.3377 170.2796L9.9661 170.3279L9.7687 170.3687L9.5716 170.4254L9.375 170.498L9.1297 170.6111L8.8851 170.749L8.5842 170.9532L8.2842 171.1951L7.9852 171.4748L7.7003 171.7832L7.5345 171.9909L7.388 172.2001L7.251 172.4287L7.1588 172.6107L7.0807 172.7939L7.0219 172.9619L6.9748 173.1309L6.9405 173.2955L6.9172 173.4609L6.9049 173.6273L6.9049 173.8457L6.923 174.0595L6.9518 174.234L6.9932 174.4054L7.0365 174.5439L7.0884 174.6801L7.1518 174.8205L7.2244 174.9585L7.3064 175.0941L7.4331 175.2751L7.5771 175.4516L7.7383 175.6237L7.9437 175.8168L8.1501 175.9858L8.3227 176.1083L8.4959 176.2142L8.6698 176.3035L8.8109 176.3636L8.9553 176.4144L9.1032 176.4559L9.2928 176.4947L9.4878 176.519L9.6881 176.5287L9.9374 176.5232L10.1983 176.5006L10.4707 176.4609L10.9009 176.3694L11.6112 176.1671L12.4127 175.8923L14.016 175.2863L15.2179 174.8612L16.3261 174.5626L16.7918 174.4732L17.2456 174.4141L17.6875 174.3855L18.3281 174.3994L18.7409 174.4472L19.1432 174.5264L19.4705 174.6165L19.7904 174.7284L20.1031 174.8621L20.4705 175.0543L20.8313 175.2836L21.1269 175.503L21.4178 175.7483L21.7041 176.0194L22.0564 176.4015L22.2656 176.6638L22.4543 176.9321L22.6356 177.2295L22.7928 177.534L22.926 177.8455L23.0274 178.1374L23.1082 178.4316L23.1683 178.728L23.2143 179.1016L23.2279 179.4786L23.2093 179.8591L23.1718 180.1649L23.115 180.4707L23.039 180.7765L22.9168 181.1587L22.7645 181.5409L22.5821 181.9231L22.3259 182.3763L22.0313 182.8186L21.6983 183.2501L21.1269 183.877L20.4643 184.4917L20.0243 184.8468L19.5855 185.1581L19.1481 185.4256L18.7125 185.6551L18.2793 185.8524L17.8484 186.0175L17.2065 186.2048L16.7821 186.2895L16.3613 186.3425L16.0134 186.3623L15.668 186.3599L15.3251 186.3355L14.7206 186.2499L14.1372 186.1209L13.5749 185.9484" stroke="rgba(0,0,0,1)"/>
  </g>
  <g>
    <path d="M33.6025 171.0022L32.936 171.6169L32.231 172.1666L31.614 172.575L30.9703 172.9383L30.2998 173.2564L29.4703 173.5739L28.6232 173.8171L27.9038 173.963L27.1721 174.0574L26.4282 174.1002L25.8318 174.0959L25.2445 174.0575L24.6664 173.9851L23.9564 173.8468L23.2607 173.6553L22.5791 173.4107L22.0485 173.1789L21.5359 172.9173L21.0413 172.6258L20.4483 172.2195L19.8834 171.7666L19.3466 171.2671L18.9443 170.841L18.5722 170.3971L18.2301 169.9356L17.8448 169.3337L17.5066 168.7042L17.2154 168.047L17.018 167.5055L16.8543 166.9544L16.7241 166.3939L16.6086 165.6798L16.5457 164.951L16.5352 164.2073L16.5928 163.316L16.7246 162.4424L16.8912 161.7279L17.1093 161.0256L17.3791 160.3356L17.7662 159.5342L18.2184 158.7714L18.6448 158.1651L19.1165 157.5856L19.6332 157.0329L20.1256 156.5691L20.638 156.1422L21.1705 155.7522L21.8644 155.3167L22.5897 154.9389L23.3463 154.6188L23.9676 154.4067L24.5955 154.2364L25.2301 154.108L26.0327 154.0064L26.8457 153.9702L27.6692 153.9994L27.5152 155.9532L26.9848 155.9361L26.459 155.9523L25.9378 156.0018L25.2926 156.1106L24.6547 156.2715L24.0239 156.4844L23.5308 156.6899L23.0549 156.9242L22.5963 157.1873L22.0473 157.5565L21.5252 157.9707L21.0302 158.4298L20.5225 158.9818L20.2158 159.367L19.9347 159.766L19.6588 160.214L19.4129 160.6782L19.1968 161.1586L18.9476 161.8367L18.7568 162.5181L18.6425 163.0886L18.5687 163.6614L18.5356 164.2365L18.5496 164.9241L18.6223 165.6041L18.7279 166.1649L18.8742 166.7204L19.0614 167.2705L19.2402 167.7011L19.4445 168.1168L19.6742 168.5177L19.9971 168.9979L20.3597 169.4549L20.7621 169.8888L21.1133 170.2199L21.4784 170.5245L21.8573 170.8028L22.3506 171.1135L22.8655 171.383L23.4021 171.6112L24.0624 171.8304L24.5064 171.9435L24.9534 172.0299L25.441 172.0937L25.9322 172.1263L26.4269 172.1277L27.1126 172.079L27.7949 171.9717L28.361 171.8377L28.9247 171.6631L29.4862 171.4479L29.9276 171.247L30.3557 171.021L30.7703 170.7699L31.2697 170.4209L31.7481 170.0326L32.2056 169.6053L32.5975 169.1884L32.9565 168.7545L33.2826 168.3035L33.644 167.7159L33.9539 167.1017L34.2124 166.4608L34.3806 165.9342L34.5126 165.401L34.6085 164.8613L34.6776 164.1774L34.6902 163.4832L34.6463 162.7788L36.6242 162.5677L36.6736 163.312L36.6699 164.063L36.6134 164.8206L36.5014 165.5734L36.3315 166.3099L36.1038 167.0301L35.8473 167.6901L35.5511 168.3253L35.2153 168.9355L34.7397 169.6633L34.2021 170.3522L33.6025 171.0022" stroke="rgba(0,0,0,1)"/>
  </g>
  <g>
    <path d="M50.5482 153.6574L49.7946 152.9326L49.046 152.2705L48.297 151.6563L47.5423 151.0755L38.8084 159.8095L39.3892 160.5641L40.0034 161.3131L40.6655 162.0617L41.3902 162.8154L39.9933 164.2123L38.6658 162.8017L37.4572 161.3436L36.3675 159.8381L34.9558 157.4909L34.3187 156.1902L33.7705 154.8761L33.3114 153.5489L32.7896 151.5331L32.5532 150.2708L32.4173 149.1278L32.3582 148.1192L32.3521 147.2602L32.3814 146.5622L32.4286 146.0365L32.4715 145.6967L32.4879 145.5564L32.6189 144.8455L33.3298 144.7519L33.4705 144.7398L33.8177 144.7035L34.354 144.6699L35.0617 144.6659L35.9277 144.7001L36.9386 144.7811L38.0816 144.931L39.3439 145.1721L40.877 145.5538L42.3774 146.0447L43.8505 146.6408L45.3017 147.3382L46.8735 148.23L48.3907 149.2372L49.8534 150.3599L51.9452 152.2604L50.5482 153.6574" stroke="rgba(0,0,0,1)"/>
  </g>
  <g>
    <path d="M37.6609 158.1631L45.8585 149.9655L44.5673 149.2237L43.3252 148.6074L42.1324 148.1164L40.4688 147.5536L38.983 147.1498L37.5237 146.8894L36.2515 146.7569L35.2 146.7109L34.4025 146.7101L34.3978 147.5029L34.4212 148.5467L34.4804 149.3664L34.6083 150.2666L34.8047 151.247L35.1871 152.7356L35.7542 154.401L36.2592 155.5986L36.8947 156.8526L37.6609 158.1631" stroke="rgba(0,0,0,1)"/>
  </g>
  <g>
    <path d="M45.0484 132.416L45.8021 131.7095L46.5688 131.0842L47.2177 130.6251L47.8756 130.2224L48.5427 129.8761L49.3482 129.5336L49.8848 129.3488L50.4211 129.1989L51.0017 129.0758L51.5819 128.9936L52.1617 128.9524L52.6954 128.9507L53.2265 128.9841L53.7551 129.0525L54.4122 129.1874L55.0652 129.377L55.7142 129.6215L56.2266 129.856L56.7287 130.1246L57.2203 130.4273L57.8204 130.8536L58.4042 131.3333L58.9719 131.8662L59.6112 132.5546L60.1724 133.2632L60.5805 133.8689L60.9342 134.4887L61.2337 135.1223L61.4341 135.6365L61.5992 136.1539L61.7291 136.6746L61.842 137.33L61.8999 137.9906L61.9028 138.6562L61.8656 139.1912L61.7931 139.727L61.6854 140.2636L61.5014 140.9355L61.2623 141.6086L60.9682 142.283L60.5422 143.086L60.0359 143.8751L59.5527 144.522L59.0137 145.1591L58.419 145.7866L55.172 149.0336L53.2828 150.9227L39.9122 137.5521L41.8014 135.663L45.0484 132.416" stroke="rgba(0,0,0,1)"/>
  </g>
  <g>
    <path d="M57.0225 144.3893L57.6452 143.728L58.1908 143.0666L58.5865 142.5154L58.9288 141.9641L59.2175 141.4127L59.4982 140.7543L59.6479 140.3188L59.7678 139.8862L59.864 139.4207L59.925 138.9586L59.951 138.4998L59.9445 138.0799L59.9095 137.6642L59.846 137.2527L59.7264 136.7442L59.5623 136.2423L59.3537 135.7469L59.0498 135.1645L58.6925 134.5983L58.354 134.1389L57.9784 133.6907L57.5656 133.2538L57.0392 132.7622L56.4978 132.3252L56.0352 132.0029L55.5622 131.7185L55.0788 131.472L54.6856 131.3041L54.2879 131.1644L53.8856 131.0528L53.3764 130.953L52.8602 130.8973L52.3368 130.8856L51.9138 130.9087L51.4878 130.9616L51.0588 131.0442L50.5184 131.1893L49.9734 131.3809L49.4238 131.6191L48.7616 131.9713L48.0996 132.4008L47.4379 132.9076L46.4457 133.8125L44.7095 135.5488L42.7061 137.5521L53.2828 148.1289L55.2862 146.1255L57.0225 144.3893" stroke="rgba(0,0,0,1)"/>
  </g>
  <g>
    <path d="M78.03 126.1756L78.0284 126.1772L76.6315 127.5741L63.2609 114.2035L64.661 112.8034L78.03 126.1756" stroke="rgba(0,0,0,1)"/>
  </g>
  <g>
    <path d="M76.8358 122.6875L77.4257 120.8256L77.8774 120.9505L78.3359 121.0439L78.8012 121.1061L79.271 121.1326L79.7432 121.1191L80.2176 121.0656L80.5358 121.0035L80.8563 120.9153L81.179 120.8009L81.6673 120.5804L81.9942 120.3963L82.3206 120.1769L82.6465 119.9225L83.1342 119.4749L83.3866 119.2061L83.6163 118.9272L83.8232 118.6384L84.0908 118.1864L84.2381 117.8775L84.3571 117.5683L84.4347 117.3106L84.4928 117.0527L84.5313 116.7946L84.5479 116.5888L84.5517 116.3846L84.5429 116.1818L84.5139 115.9304L84.4651 115.6813L84.3964 115.4345L84.3258 115.2402L84.2398 115.0503L84.1564 114.8955L84.0623 114.7437L83.9316 114.5607L83.7846 114.3824L83.6214 114.2087L83.4081 114.0085L83.1903 113.8299L83.0054 113.6975L82.8173 113.5802L82.581 113.4561L82.4208 113.386L82.2599 113.3265L82.0968 113.277L81.9322 113.2376L81.7655 113.2081L81.5968 113.1885L81.4261 113.1789L81.2533 113.1791L80.8542 113.2067L80.4272 113.2665L79.9722 113.3585L79.2374 113.5571L78.0173 113.9909L76.3713 114.6255L75.3033 114.9878L74.3151 115.2625L73.8987 115.3512L73.4925 115.4124L73.0965 115.4458L72.5215 115.4441L72.1495 115.4072L71.7847 115.3403L71.4862 115.2616L71.1927 115.1621L70.9042 115.0417L70.6762 114.9287L70.4498 114.7989L70.2249 114.6522L69.946 114.4452L69.6696 114.2118L69.3956 113.9522L69.0791 113.609L68.891 113.3734L68.7211 113.1324L68.5578 112.8652L68.416 112.5917L68.2957 112.3118L68.2028 112.05L68.1261 111.7871L68.0658 111.5232L68.0133 111.1918L67.9863 110.8588L67.9847 110.5241L68.0024 110.2556L68.0373 109.9871L68.0896 109.7184L68.1792 109.3825L68.2959 109.0464L68.4396 108.7101L68.6462 108.3125L68.8886 107.9268L69.1181 107.6144L69.3724 107.3103L69.6516 107.0145L70.0632 106.6299L70.4804 106.2937L70.8323 106.0505L71.1882 105.8409L71.4836 105.6937L71.7817 105.5693L72.0322 105.4829L72.2844 105.4123L72.5385 105.3575L72.984 105.2891L73.4276 105.2483L73.8691 105.235L74.4181 105.2572L74.964 105.3224L75.5067 105.4308L75.0592 107.3228L74.6031 107.2424L74.1496 107.2007L73.7737 107.1957L73.3998 107.2175L73.0277 107.2663L72.83 107.3074L72.6328 107.3642L72.4361 107.4369L72.1909 107.5499L71.9464 107.6876L71.646 107.8914L71.3467 108.1327L71.0485 108.4115L70.7628 108.7207L70.5966 108.9288L70.4497 109.1384L70.3124 109.3673L70.22 109.5495L70.1417 109.7329L70.0828 109.901L70.0357 110.0701L70.0013 110.2347L69.978 110.4001L69.9657 110.5664L69.9659 110.7847L69.984 110.9984L70.0129 111.1729L70.0543 111.3442L70.0977 111.4827L70.1496 111.6189L70.213 111.7593L70.2857 111.8972L70.3677 112.0328L70.4944 112.2138L70.6384 112.3903L70.7996 112.5624L71.0053 112.7552L71.2121 112.9237L71.3855 113.0456L71.5597 113.1505L71.7348 113.2385L71.877 113.2974L72.0228 113.3469L72.1722 113.3868L72.3641 113.4235L72.5615 113.4453L72.7646 113.4523L73.0177 113.443L73.2829 113.416L73.5602 113.3714L73.9988 113.2714L74.7236 113.0547L75.541 112.7639L77.173 112.1293L78.4005 111.6786L79.5286 111.36L80.0018 111.2632L80.4628 111.1969L80.9116 111.1614L81.5619 111.1655L81.9807 111.2074L82.3882 111.2815L82.7192 111.3678L83.0423 111.4765L83.3576 111.6076L83.7276 111.7972L84.0903 112.0246L84.3869 112.243L84.6785 112.4876L84.965 112.7584L85.3172 113.1407L85.5263 113.4031L85.7148 113.6715L85.8958 113.9693L86.0527 114.2741L86.1854 114.5861L86.2865 114.8784L86.367 115.1728L86.4269 115.4693L86.473 115.8428L86.4869 116.2197L86.4687 116.5997L86.4316 116.9051L86.3752 117.2106L86.2994 117.5161L86.1775 117.898L86.0254 118.2801L85.843 118.6622L85.5868 119.1154L85.2922 119.5577L84.9593 119.9892L84.3878 120.6161L83.7252 121.2308L83.2852 121.5859L82.8464 121.8972L82.409 122.1647L81.9733 122.3943L81.5399 122.5918L81.1086 122.7573L80.4658 122.9454L80.0409 123.0307L79.6199 123.0839L79.272 123.1036L78.9269 123.1011L78.5844 123.0762L77.9809 122.9897L77.398 122.8601L76.8358 122.6875" stroke="rgba(0,0,0,1)"/>
  </g>
  <g>
    <path d="M108.6206 95.585L107.8669 94.8603L107.1183 94.1982L106.3693 93.584L105.6147 93.0032L96.8807 101.7371L97.4616 102.4918L98.0757 103.2408L98.7378 103.9894L99.4626 104.743L98.0656 106.14L96.7382 104.7293L95.5296 103.2713L94.4398 101.7658L93.0281 99.4186L92.391 98.1178L91.8429 96.8038L91.3837 95.4765L90.8619 93.4608L90.6255 92.1985L90.4896 91.0555L90.4305 90.0469L90.4244 89.1879L90.4537 88.4899L90.5009 87.9642L90.5438 87.6243L90.5602 87.484L90.6912 86.7732L91.4021 86.6796L91.5428 86.6675L91.89 86.6312L92.4263 86.5976L93.134 86.5936L94 86.6278L95.0109 86.7087L96.154 86.8587L97.4162 87.0998L98.9494 87.4815L100.4497 87.9724L101.9228 88.5685L103.3741 89.2659L104.9458 90.1576L106.463 91.1649L107.9257 92.2876L110.0175 94.1881L108.6206 95.585" stroke="rgba(0,0,0,1)"/>
  </g>
  <g>
    <path d="M95.7333 100.0908L103.9309 91.8932L102.6396 91.1514L101.3975 90.535L100.2047 90.0441L98.5412 89.4813L97.0554 89.0775L95.5961 88.8171L94.3239 88.6846L93.2723 88.6386L92.4748 88.6378L92.4701 89.4306L92.4935 90.4744L92.5528 91.2941L92.6806 92.1942L92.877 93.1747L93.2594 94.6632L93.8265 96.3287L94.3315 97.5263L94.9671 98.7803L95.7333 100.0908" stroke="rgba(0,0,0,1)"/>
  </g>
  <g>
    <path d="M114.3486 63.1158L115.7455 61.7189L117.086 63.1445L118.2978 64.6114L119.2092 65.8654L120.0311 67.1482L120.7636 68.4597L121.4017 69.7595L121.9508 71.0725L122.4112 72.3985L122.935 74.4122L123.1733 75.6727L123.3117 76.8132L123.3756 77.817L123.3903 78.6674L123.3686 79.3577L123.3234 79.8815L123.2806 80.2212L123.2664 80.3594L123.1365 81.0691L122.4268 81.1616L122.296 81.1731L121.9847 81.2015L121.5045 81.2312L120.8671 81.2468L120.0859 81.2337L119.1748 81.1777L118.146 81.0623L117.0121 80.8714L117.2027 82.0384L117.3107 83.0979L117.3567 84.0339L117.3612 84.8306L117.3344 85.4762L117.2863 85.9591L117.2424 86.2696L117.2277 86.398L117.0979 87.1077L116.3881 87.2002L116.2476 87.2121L115.9009 87.2479L115.3651 87.281L114.6571 87.2852L113.7892 87.253L112.7734 87.177L111.6259 87.0315L110.3631 86.7909L108.8409 86.3983L107.3388 85.9091L105.8661 85.3141L104.4323 84.604L102.8655 83.7178L101.3499 82.7126L99.8856 81.5885L97.785 79.6794L99.1819 78.2825L100.7689 79.756L102.3492 80.996L103.9049 82.0308L105.4177 82.8885L106.8704 83.5818L108.2455 84.1236L109.5204 84.5357L110.6721 84.8401L112.1444 85.1248L113.4369 85.2745L114.5095 85.3276L115.3219 85.3228L115.3286 84.5279L115.3007 83.4886L115.1862 82.2288L114.9332 80.7723L114.9123 80.6755L114.8929 80.5788L114.8696 80.4781L114.837 80.3696L113.341 79.886L111.8707 79.3004L110.4261 78.6129L108.8568 77.7286L107.3393 76.7248L105.8735 75.6015L103.7718 73.6926L105.1688 72.2956L106.7255 73.7451L107.761 74.5902L108.7948 75.3382L109.8269 75.9891L111.337 76.8188L112.774 77.5006L114.1379 78.0345L113.604 76.6934L112.9222 75.2751L112.0926 73.7795L111.4398 72.753L110.6863 71.7192L109.832 70.6781L108.3617 69.1026L109.7587 67.7057L111.0871 69.1182L112.2952 70.5783L113.3829 72.0861L114.7889 74.4371L115.3114 75.4955L115.7723 76.5594L116.1709 77.6279L116.5064 78.7003L116.5289 78.7L116.5501 78.7012L116.5667 78.7033L116.5825 78.7064L116.5947 78.7097L116.6064 78.7137L116.6156 78.7175L116.6245 78.7218L116.6329 78.7266L116.6427 78.7321L116.653 78.7371L116.6639 78.7415L116.6781 78.7462L116.6933 78.7499L116.713 78.7533L116.734 78.7554L116.7562 78.756L118.2398 79.0295L119.5418 79.1696L120.6184 79.2187L121.4257 79.219L121.4363 78.4203L121.4034 77.386L121.2785 76.1366L121.0128 74.6927L120.7207 73.5567L120.3115 72.2883L119.7658 70.9125L119.0639 69.4543L118.1904 67.9284L117.1301 66.3492L115.8578 64.738L114.3486 63.1158" stroke="rgba(0,0,0,1)"/>
  </g>
  <g>
    <path d="M129.1706 51.0877L119.9363 60.3219L126.1227 66.5083L133.9399 58.6912L135.3368 60.0881L127.5196 67.9053L130.513 70.8987L139.7473 61.6644L141.1442 63.0613L130.513 73.6926L117.1424 60.3219L127.7736 49.6907L129.1706 51.0877" stroke="rgba(0,0,0,1)"/>
  </g>
  <g>
    <path d="M139.2984 60.2248L139.8884 58.363L140.34 58.4878L140.7985 58.5813L141.2638 58.6435L141.7337 58.67L142.2059 58.6565L142.6803 58.6029L142.9985 58.5408L143.319 58.4526L143.6417 58.3383L144.1299 58.1178L144.4569 57.9336L144.7833 57.7143L145.1091 57.4598L145.5969 57.0123L145.8493 56.7434L146.079 56.4646L146.2859 56.1757L146.5535 55.7237L146.7007 55.4148L146.8197 55.1057L146.8974 54.8479L146.9555 54.59L146.9939 54.3319L147.0105 54.1262L147.0144 53.9219L147.0055 53.7191L146.9766 53.4677L146.9277 53.2186L146.859 52.9718L146.7884 52.7775L146.7024 52.5877L146.619 52.4328L146.525 52.281L146.3942 52.098L146.2473 51.9197L146.0841 51.7461L145.8708 51.5458L145.653 51.3672L145.468 51.2348L145.28 51.1175L145.0437 50.9934L144.8835 50.9233L144.7225 50.8639L144.5595 50.8144L144.3949 50.775L144.2281 50.7455L144.0595 50.7259L143.8888 50.7162L143.716 50.7164L143.3169 50.744L142.8899 50.8038L142.4349 50.8959L141.7 51.0944L140.4799 51.5282L138.8339 52.1628L137.766 52.5251L136.7778 52.7998L136.3614 52.8886L135.9552 52.9497L135.5591 52.9831L134.9842 52.9814L134.6122 52.9445L134.2474 52.8776L133.9488 52.7989L133.6554 52.6994L133.3669 52.5791L133.1389 52.466L132.9124 52.3362L132.6876 52.1895L132.4087 51.9825L132.1323 51.7492L131.8583 51.4896L131.5417 51.1463L131.3536 50.9108L131.1838 50.6698L131.0205 50.4026L130.8787 50.129L130.7584 49.8491L130.6654 49.5873L130.5888 49.3244L130.5284 49.0605L130.4759 48.7291L130.4489 48.3961L130.4474 48.0614L130.465 47.793L130.5 47.5244L130.5522 47.2558L130.6419 46.9198L130.7585 46.5837L130.9023 46.2475L131.1089 45.8498L131.3513 45.4641L131.5807 45.1518L131.8351 44.8477L132.1143 44.5519L132.5259 44.1673L132.9431 43.8311L133.295 43.5878L133.6508 43.3782L133.9463 43.231L134.2444 43.1066L134.4948 43.0202L134.7471 42.9496L135.0011 42.8948L135.4467 42.8264L135.8902 42.7856L136.3317 42.7724L136.8808 42.7945L137.4266 42.8598L137.9693 42.9681L137.5219 44.8602L137.0657 44.7797L136.6122 44.7381L136.2364 44.733L135.8625 44.7548L135.4904 44.8036L135.2927 44.8447L135.0955 44.9016L134.8988 44.9742L134.6535 45.0872L134.4091 45.2249L134.1086 45.4287L133.8093 45.67L133.5112 45.9488L133.2255 46.258L133.0592 46.4661L132.9123 46.6758L132.7751 46.9046L132.6826 47.0868L132.6044 47.2702L132.5455 47.4383L132.4983 47.6074L132.464 47.772L132.4407 47.9374L132.4284 48.1037L132.4285 48.3221L132.4467 48.5357L132.4756 48.7103L132.517 48.8816L132.5604 49.02L132.6123 49.1563L132.6757 49.2966L132.7484 49.4346L132.8304 49.5701L132.9571 49.7511L133.1011 49.9276L133.2623 50.0997L133.4679 50.2926L133.6748 50.4611L133.8482 50.5829L134.0224 50.6878L134.1975 50.7758L134.3397 50.8348L134.4855 50.8842L134.6349 50.9242L134.8267 50.9608L135.0242 50.9826L135.2272 50.9896L135.4803 50.9803L135.7455 50.9533L136.0228 50.9087L136.4615 50.8088L137.1862 50.592L138.0037 50.3013L139.6357 49.6666L140.8632 49.2159L141.9913 48.8974L142.4645 48.8005L142.9255 48.7343L143.3743 48.6987L144.0246 48.7029L144.4434 48.7447L144.8509 48.8188L145.1818 48.9052L145.505 49.0139L145.8202 49.145L146.1902 49.3346L146.5529 49.562L146.8496 49.7803L147.1411 50.0249L147.4276 50.2958L147.7799 50.678L147.989 50.9404L148.1775 51.2089L148.3585 51.5066L148.5153 51.8114L148.6481 52.1234L148.7491 52.4157L148.8296 52.7101L148.8896 53.0066L148.9356 53.3802L148.9496 53.757L148.9314 54.1371L148.8943 54.4425L148.8378 54.7479L148.7621 55.0534L148.6402 55.4354L148.488 55.8174L148.3057 56.1995L148.0495 56.6527L147.7549 57.095L147.4219 57.5265L146.8504 58.1534L146.1879 58.7682L145.7478 59.1232L145.3091 59.4345L144.8717 59.702L144.436 59.9316L144.0025 60.1291L143.5713 60.2946L142.9285 60.4828L142.5035 60.5681L142.0825 60.6212L141.7347 60.641L141.3895 60.6384L141.0471 60.6135L140.4435 60.527L139.8606 60.3975L139.2984 60.2248" stroke="rgba(0,0,0,1)"/>
  </g>
  <g>
    <path d="M158.9011 31.835L159.4005 32.3732L159.8519 32.9409L160.1913 33.4365L160.4973 33.9526L160.7699 34.4891L161.0509 35.1544L161.2795 35.8381L161.4301 36.4219L161.5443 37.0186L161.6222 37.628L161.6756 38.3783L161.6707 39.1294L161.6073 39.8811L161.4891 40.6294L161.3194 41.37L161.0982 42.1029L161.0576 42.2132L161.0114 42.3196L160.9653 42.4275L160.9246 42.5424L160.5986 43.2517L160.226 43.9329L159.8069 44.5862L159.091 45.5137L159.0722 45.5325L159.0324 45.5724L158.994 45.6107L158.9565 45.6482L158.919 45.6858L158.8595 45.7452L158.7438 45.8609L158.5905 46.0142L158.553 46.0518L158.4935 46.1112L158.359 46.2457L158.2245 46.3802L158.1682 46.4365L158.1303 46.4745L158.0916 46.5132L158.0528 46.5519L158.0149 46.5898L157.9961 46.6086L157.3642 47.1231L156.6999 47.5833L156.0024 47.9902L155.2711 48.3443L155.2146 48.3637L155.1574 48.3839L155.1001 48.404L155.0436 48.4234L155.0249 48.4422L154.9123 48.4805L154.8114 48.5196L154.7066 48.5642L154.5822 48.6189L153.8508 48.8385L153.1107 49.0077L152.362 49.1265L151.6097 49.1903L150.8592 49.1948L150.1104 49.1397L149.388 49.0346L148.6819 48.8791L148.1061 48.7111L147.5417 48.5082L146.9887 48.2703L146.3467 47.9398L145.7344 47.561L145.2467 47.2085L144.7796 46.8225L144.3331 46.403L143.8036 45.8307L143.328 45.2267L142.9729 44.6993L142.6552 44.1498L142.375 43.5784L142.0908 42.8685L141.8657 42.1363L141.7232 41.5093L141.6218 40.8669L141.5615 40.2091L141.5329 39.4858L141.5631 38.7662L141.6519 38.0504L141.7915 37.343L141.9739 36.6484L142.1991 35.9668L142.2155 35.9503L142.221 35.9449L142.2187 35.9424L142.2167 35.94L142.2154 35.9379L142.2146 35.9366L142.2139 35.9352L142.2132 35.9337L142.2127 35.9322L142.2123 35.9309L142.212 35.9294L142.2118 35.9279L142.2118 35.9264L142.2118 35.9248L142.212 35.9236L142.2122 35.9224L142.2125 35.9211L142.2129 35.9197L142.2135 35.9183L142.2145 35.9163L142.2157 35.9143L142.2172 35.912L142.2191 35.9098L142.2212 35.9076L142.2217 35.8969L142.2224 35.8903L142.2236 35.884L142.2252 35.8776L142.2265 35.8735L142.228 35.8698L142.2296 35.8663L142.2314 35.863L142.2333 35.8598L142.2355 35.8569L142.2377 35.8541L142.2402 35.8515L142.2427 35.8488L142.2451 35.8458L142.2475 35.8425L142.2511 35.8368L142.2554 35.8286L142.2597 35.8192L142.2639 35.8085L142.2749 35.7735L142.2762 35.762L142.2782 35.7515L142.2804 35.7434L142.2821 35.7384L142.284 35.7337L142.2865 35.7287L142.2891 35.7241L142.2916 35.7206L142.2942 35.7173L142.297 35.7143L142.2994 35.7118L142.3016 35.709L142.3037 35.7062L142.306 35.7023L142.3081 35.6983L142.3104 35.6929L142.3119 35.6883L142.3132 35.6834L142.3143 35.6783L142.3155 35.6686L142.316 35.6582L142.3211 35.6527L142.3241 35.649L142.3267 35.6453L142.3291 35.6412L142.3305 35.6386L142.3317 35.636L142.3326 35.6334L142.3334 35.6309L142.334 35.6284L142.3345 35.6258L142.3347 35.6233L142.3348 35.6208L142.3349 35.6183L142.3352 35.6159L142.3356 35.6134L142.3364 35.6103L142.3374 35.6073L142.339 35.6035L142.3405 35.6004L142.3423 35.5973L142.3444 35.5942L142.3487 35.5888L142.3537 35.5834L142.375 35.5296L142.3947 35.4867L142.407 35.4593L142.4186 35.4271L142.4295 35.3901L142.435 35.3753L142.4516 35.3309L142.4696 35.2836L142.4827 35.255L142.4968 35.2287L142.5131 35.2029L142.5246 35.1871L142.5366 35.1726L142.549 35.1593L142.5495 35.1486L142.5503 35.142L142.5514 35.1357L142.553 35.1293L142.5544 35.1253L142.5558 35.1216L142.5574 35.118L142.5592 35.1147L142.5612 35.1116L142.5633 35.1086L142.5656 35.1058L142.568 35.1032L142.6135 35.0117L142.645 34.941L142.6626 34.8912L142.6813 34.8724L142.8405 34.5687L143.0036 34.2688L143.1799 33.9742L143.3787 33.6866L143.4193 33.6459L143.4522 33.6131L143.4757 33.5896L143.514 33.5513L143.5539 33.5114L143.6289 33.4363L143.6312 33.4339L143.6333 33.4313L143.6348 33.4291L143.6363 33.4267L143.6378 33.4237L143.6389 33.4211L143.6399 33.4185L143.6407 33.4158L143.6414 33.4124L143.642 33.4089L143.6424 33.4053L143.6425 33.4015L143.6424 33.3962L143.6419 33.3902L143.6409 33.3839L143.6395 33.3774L143.6359 33.365L143.6309 33.3517L143.6244 33.3375L143.6089 33.3088L143.5886 33.2771L143.5672 33.2438L143.5558 33.2235L143.5467 33.2048L143.5416 33.1923L143.5377 33.1807L143.5354 33.1715L143.5343 33.1658L143.5337 33.1607L143.5333 33.1559L143.5332 33.152L143.5334 33.1483L143.5338 33.1442L143.5346 33.1404L143.5354 33.1373L143.5363 33.1346L143.5374 33.132L143.5387 33.1296L143.54 33.1273L143.5416 33.1251L143.5433 33.123L143.5451 33.121L143.6233 33.0428L143.6656 33.0006L143.7172 32.949L143.8141 32.852L143.8572 32.809L143.9111 32.755L144.0081 32.6581L144.0503 32.6158L144.1019 32.5642L144.1989 32.4672L144.2771 32.389L144.3897 32.2764L144.4718 32.1943L144.5242 32.1419L144.5837 32.0825L144.64 32.0262L144.6893 31.9769L144.7557 31.9104L144.8715 31.7947L144.9497 31.7165L145.0623 31.6039L145.1116 31.5546L145.1405 31.5257L145.2562 31.4099L145.3039 31.3622L145.3344 31.3317L145.4283 31.2379L145.4916 31.1745L145.5253 31.1409L145.6222 31.0439L145.6245 31.0418L145.6269 31.0399L145.629 31.0385L145.6312 31.0372L145.6341 31.0358L145.6365 31.0349L145.639 31.034L145.6416 31.0334L145.6448 31.0327L145.6482 31.0323L145.6517 31.0321L145.6554 31.032L145.6605 31.0323L145.6664 31.033L145.6725 31.0341L145.6788 31.0357L145.691 31.0395L145.7042 31.0447L145.7182 31.0513L145.7467 31.067L145.7783 31.0874L145.8117 31.1087L145.8321 31.12L145.851 31.1289L145.8637 31.1338L145.8755 31.1375L145.8848 31.1396L145.8907 31.1406L145.8959 31.1411L145.9009 31.1413L145.9049 31.1412L145.9088 31.141L145.913 31.1403L145.917 31.1395L145.9202 31.1385L145.9231 31.1374L145.9258 31.1362L145.9284 31.1348L145.9308 31.1333L145.9332 31.1316L145.9354 31.1297L145.9375 31.1277L145.9938 31.0714L146.0322 31.0331L146.0721 30.9932L146.1096 30.9557L146.1471 30.9181L146.1847 30.8806L146.4157 30.7292L146.6466 30.5887L146.8814 30.4536L147.124 30.3184L147.3517 30.202L147.3705 30.1833L147.6044 30.0668L147.6137 30.0668L147.6417 30.0666L147.6597 30.0502L147.6803 30.0346L147.7034 30.0195L147.736 30.0017L147.7726 29.9849L147.8133 29.9692L147.8182 29.969L147.8232 29.9685L147.8281 29.9676L147.8342 29.9661L147.8404 29.9641L147.848 29.961L147.8541 29.9578L147.8603 29.9542L147.8664 29.95L147.8773 29.9415L147.8882 29.9314L147.9368 29.9145L147.9775 29.8977L147.9966 29.8884L148.0132 29.8791L148.0252 29.8713L148.0323 29.8662L148.0386 29.861L148.0441 29.8559L148.0585 29.8554L148.0723 29.8541L148.0854 29.8521L148.0958 29.8498L148.1057 29.8469L148.1147 29.8437L148.1233 29.84L148.1314 29.8359L148.139 29.8313L148.1462 29.8262L148.153 29.8207L148.1594 29.8148L148.1875 29.8053L148.2716 29.7768L148.3183 29.7625L148.3339 29.7578L148.338 29.754L148.3428 29.7503L148.3483 29.7466L148.358 29.741L148.3755 29.7326L148.4088 29.72L148.4181 29.7199L148.4461 29.7198L149.1279 29.4945L149.823 29.3115L150.5313 29.1711L151.25 29.0792L151.9764 29.0423L152.7103 29.0603L152.6916 29.079L153.4795 29.156L154.246 29.2913L154.8684 29.4486L155.476 29.6465L156.0687 29.8848L156.7548 30.2224L157.4086 30.6148L157.9286 30.9835L158.4261 31.3903L158.9011 31.835" stroke="rgba(0,0,0,1)"/>
  </g>
  <g>
    <path d="M157.4524 44.3584L157.9214 43.7972L158.3354 43.2118L158.6385 42.7054L158.9035 42.1822L159.1303 41.6422L159.3517 40.9827L159.5172 40.3207L159.6124 39.7669L159.6688 39.2114L159.6863 38.654L159.6571 37.9884L159.5737 37.3312L159.463 36.79L159.3147 36.2548L159.1288 35.7254L158.9524 35.3107L158.7506 34.9086L158.5233 34.5192L158.2034 34.0504L157.8438 33.6014L157.4445 33.1723L157.1034 32.8503L156.7491 32.5531L156.3815 32.2809L155.9034 31.9756L155.4046 31.7092L154.885 31.4816L154.2454 31.2594L153.5982 31.0922L153.0531 30.9949L152.5027 30.9358L151.9471 30.9148L151.2785 30.9406L150.6125 31.0222L150.0595 31.1329L149.5083 31.2825L148.9589 31.4708L148.3129 31.7476L147.6911 32.0793L147.1915 32.3976L146.7087 32.7541L146.2427 33.1487L146.1078 33.2836L146.0294 33.362L145.9542 33.4373L145.8569 33.5345L145.8005 33.5909L145.6656 33.7258L145.6468 33.7446L145.1853 34.2984L144.7768 34.8782L144.4769 35.3814L144.2139 35.9026L143.9877 36.442L143.7658 37.102L143.5987 37.7657L143.5013 38.3216L143.442 38.8801L143.4207 39.4412L143.4462 40.1116L143.5279 40.7731L143.6389 41.3177L143.789 41.8562L143.9782 42.3885L144.1575 42.8054L144.3617 43.209L144.5906 43.5995L144.9118 44.0691L145.2717 44.518L145.6703 44.9464L146.012 45.2691L146.3664 45.5664L146.7333 45.8384L147.2098 46.1427L147.706 46.4073L148.2219 46.6323L148.8578 46.8509L149.5034 47.0142L150.0488 47.108L150.601 47.1634L151.16 47.1804L151.8329 47.1503L152.5022 47.0654L153.057 46.9528L153.6094 46.8022L154.1591 46.6134L154.8042 46.3376L155.4232 46.0087L155.9191 45.6941L156.3969 45.3426L156.8565 44.9544L156.8753 44.9355L156.9106 44.9002L156.9412 44.8697L156.9726 44.8383L157.0102 44.8007L157.1043 44.7066L157.1639 44.647L157.2203 44.5905L157.3176 44.4933L157.3532 44.4576L157.385 44.4259L157.4168 44.3941L157.4524 44.3584" stroke="rgba(0,0,0,1)"/>
  </g>
  <g>
    <path d="M150.0571 37.3854L150.2016 37.2649L150.35 37.1567L150.4766 37.076L150.6058 37.0039L150.769 36.9267L150.904 36.8739L151.0417 36.8296L151.1821 36.7938L151.3506 36.7627L151.5228 36.7434L151.6987 36.7359L151.8777 36.7407L152.0513 36.7582L152.1918 36.7824L152.3286 36.8155L152.4922 36.8684L152.6203 36.9211L152.7448 36.9826L152.8561 37.047L152.9643 37.1188L153.0693 37.1982L153.2615 37.3709L153.3827 37.5011L153.4912 37.6368L153.5718 37.7539L153.6436 37.8747L153.7199 38.0288L153.7718 38.1576L153.8149 38.2902L153.8468 38.4156L153.8712 38.5441L153.8881 38.6758L153.8995 38.9367L153.8917 39.1165L153.8716 39.2924L153.8454 39.436L153.8106 39.577L153.7559 39.7471L153.7021 39.8818L153.6397 40.0139L153.5687 40.1432L153.4743 40.292L153.3681 40.437L153.25 40.5784L153.2122 40.6163L153.1932 40.6352L153.1743 40.6541L153.1554 40.6731L153.1364 40.692L153.0765 40.752L152.9325 40.8719L152.7846 40.9796L152.6584 41.06L152.5293 41.1318L152.3664 41.2087L152.2315 41.2614L152.0939 41.3057L151.9535 41.3415L151.7849 41.3727L151.6125 41.3921L151.4364 41.3998L151.257 41.3953L151.0831 41.378L150.9422 41.3539L150.8051 41.3208L150.6411 41.2678L150.5126 41.215L150.3878 41.1534L150.276 41.0887L150.1674 41.0166L150.062 40.9369L149.8689 40.7634L149.7483 40.6337L149.6404 40.4985L149.5602 40.3818L149.4889 40.2612L149.413 40.1074L149.3615 39.9786L149.3188 39.8461L149.2872 39.7207L149.2631 39.5921L149.2465 39.4603L149.2356 39.1991L149.2436 39.019L149.2639 38.843L149.2902 38.6993L149.325 38.5583L149.3796 38.3882L149.4333 38.2537L149.4955 38.1218L149.5662 37.9927L149.6602 37.8443L149.766 37.6998L149.8835 37.559L149.9434 37.499L149.9624 37.4801L149.9813 37.4611L150.0002 37.4422L150.0192 37.4233L150.0571 37.3854" stroke="rgba(0,0,0,1)"/>
  </g>
  <g>
    <path d="M163.8398 13.6246L165.2367 12.2277L165.2367 12.2277L178.6073 25.5983L177.2104 26.9952L168.7298 18.5146L169.0585 19.3898L169.343 20.2591L169.5842 21.1327L169.783 22.0205L170.0145 23.26L170.1554 24.3889L170.2265 25.3866L170.2483 26.2324L170.2329 26.919L170.192 27.4393L170.152 27.7763L170.1389 27.9134L170.0305 28.6329L169.3295 28.7228L169.19 28.7336L168.846 28.7666L168.3136 28.7954L167.6095 28.7933L166.7438 28.7516L165.727 28.6614L164.5794 28.5018L163.3212 28.2515L162.4331 28.0249L161.5595 27.7744L160.6949 27.4947L159.8341 27.1803L168.4297 35.7759L167.0328 37.1728L153.6621 23.8022L155.0591 22.4053L156.6585 23.4951L158.2087 24.3917L159.7095 25.095L161.7915 25.8723L163.6093 26.3838L165.089 26.6565L166.3816 26.792L167.4533 26.8319L168.2707 26.8175L168.2878 26.0356L168.2561 24.9955L168.1381 23.7345L167.8962 22.2903L167.5925 21.0947L167.1656 19.7849L166.6153 18.3607L166.1609 17.3588L165.6137 16.3279L164.9737 15.2683L163.8398 13.6246" stroke="rgba(0,0,0,1)"/>
  </g>
  <g>
    <path d="M178.8613 1.3969L169.627 10.6312L175.8134 16.8176L183.6306 9.0004L185.0276 10.3973L177.2104 18.2145L180.2038 21.2079L189.4381 11.9737L190.835 13.3706L180.2038 24.0018L166.8332 10.6312L177.4644 0L178.8613 1.3969" stroke="rgba(0,0,0,1)"/>
  </g>
</svg>
